<?xml version="1.0" encoding="utf-8"?>
<!-- Generator: Adobe Illustrator 16.2.1, SVG Export Plug-In . SVG Version: 6.00 Build 0)  -->
<!DOCTYPE svg PUBLIC "-//W3C//DTD SVG 1.1//EN" "http://www.w3.org/Graphics/SVG/1.1/DTD/svg11.dtd">
<svg version="1.1" id="Layer_1" xmlns="http://www.w3.org/2000/svg" xmlns:xlink="http://www.w3.org/1999/xlink" x="0px" y="0px"
	 width="1517.49px" height="1465.526px" viewBox="0 0 1517.49 1465.526" enable-background="new 0 0 1517.49 1465.526"
	 xml:space="preserve">
<g>
	<g>
		<path fill="none" stroke="#9B2128" stroke-width="36.4762" stroke-miterlimit="10" d="M430.449,1458.062
			c-52.66-122.126-58.744-317.596,61.65-399.254c163.009-110.563,189.365,125.018,44.9,169.214
			c-142.571,43.615-215.611-206.173-276.404-279.515c-91.268-110.104-282.472-25.973-186.9,61.399
			c140.804,128.726,270.933-128.941,316.219-219.35c33.481-66.828,37.4-139.817,130.357-149.131
			c63.179-6.329,88.806,62.731,64.954,111.245c-61.935,125.954-179.016,142.554-249.354,21.244
			C235.653,601.07,438.099,316.636,273.185,213.644"/>
		<g>
			<path fill="#9B2128" d="M96.308,7.188l-9.167-5.856c-2.474-1.582-6.124-2.094-7.707,0.381L0.718,124.879
				c-1.582,2.475-0.401,6.851,2.074,8.431l9.166,5.859L96.308,7.188z"/>
			<path fill="#9B2128" d="M17.381,142.634L214.42,268.562c2.472,1.583,5.291-0.24,6.868-2.713l8.332-13.034l12.031,7.689
				c2.474,1.582,5.78,0.303,7.359-2.17l55.819-87.337c1.58-2.476,0.535-4.734-1.939-6.316l-12.029-7.689l9.145-14.31
				c1.583-2.475,1.235-4.519-1.238-6.098L101.732,10.654L17.381,142.634z M144.51,99.108l-2.31,3.617l9.743,6.229
				c2.574,1.642,4.565,4.468,5.237,7.202c0.011,0.067,4.185,20.193,4.185,20.193c0.478,1.391,1.464,2.648,2.771,3.485l14.364,9.347
				c0.016,0.011,0.033,0.021,0.05,0.033l6.607,4.052c3.193-3.05,9.605-4.539,14.257-1.569c5.302,3.392,6.87,10.409,3.518,15.653
				c-3.352,5.245-10.841,7.494-16.144,4.103c-4.649-2.971-6.453-8.693-5.024-12.874l-6.641-4.249
				c-1.311-0.838-2.477-1.821-3.938-1.672c0,0-19.944,4.541-20.006,4.56c-0.164,0.039,0.036-0.167,0.113-0.186
				c-2.76,0.543-6.291,0.122-8.863-1.522l-9.464-6.118c-2.198,1.713-5.313,1.938-7.824,0.335c-3.173-2.027-4.113-6.232-2.107-9.374
				c2.007-3.141,6.217-4.046,9.389-2.019c2.51,1.602,3.6,4.544,2.969,7.261c1.161,0.742,4.308,2.75,9.609,6.136
				c1.328,0.808,2.483,1.812,3.944,1.663l18.611-3.909l-59.109-37.777l-2.055,3.213l-7.297-13.912l15.69,0.782l-2.874,4.493
				l44.743,28.594l-3.862-19.169c-0.479-1.392-1.739-2.893-3.03-3.757c-6.852-4.376-9.585-6.064-9.585-6.064l-2.601,4.067
				l-10.846-6.933l6.933-10.849L144.51,99.108z"/>
		</g>
	</g>
	<g>
		<g>
			<path fill="#0060A3" d="M1358.97,17.684l-0.008-10.43c-0.002-2.814-1.475-6.029-4.292-6.027l-140.183,0.089
				c-2.813,0.001-5.737,3.218-5.734,6.034l0.006,10.431L1358.97,17.684z"/>
			<path fill="#0060A3" d="M1208.762,23.956l0.146,224.254c0.002,2.815,2.93,4.149,5.744,4.146l14.834-0.009l0.009,13.693
				c0.002,2.813,2.744,4.825,5.56,4.822l99.401-0.062c2.814-0.004,4.101-2.015,4.099-4.832l-0.01-13.691l16.289-0.011
				c2.817-0.002,4.29-1.336,4.286-4.153l-0.143-224.254L1208.762,23.956z M1309.643,104.14l-4.116,0.003l0.006,11.09
				c0.004,2.928-1.25,5.998-3.11,7.954c-0.049,0.044-14.147,13.82-14.147,13.82c-0.875,1.104-1.854,2.525-1.854,4.013l-0.599,16.409
				c0,0.017-0.002,0.035-0.004,0.056l0.618,7.457c4.114,1.004,8.868,5.426,8.871,10.721c0.006,6.035-4.735,10.935-10.704,10.939
				c-5.969,0.002-11.597-4.88-11.601-10.917c-0.002-5.292,3.719-9.704,7.831-10.71l0.017-7.56c-0.001-1.495,0.195-2.943-0.681-4.047
				c0,0-13.973-13.761-14.023-13.801c-0.114-0.112,0.156-0.059,0.213-0.004c-1.866-1.949-3.349-5.019-3.352-7.945l0.049-10.807
				c-2.519-0.892-4.312-3.292-4.314-6.146c0-3.61,2.907-6.544,6.482-6.549c3.572-0.001,6.482,2.93,6.483,6.541
				c0.004,2.854-1.81,5.257-4.33,6.151c0.003,1.32,0.007,4.901,0.014,10.934c0.032,1.492-0.185,2.943,0.693,4.047l12.781,12.927
				l-0.047-67.359h-3.657l7.465-13l7.48,13.119l-5.115,0.024l0.034,50.933l13.487-13.025c0.876-1.106,1.437-2.896,1.466-4.385
				c-0.004-7.798-0.054-10.878-0.054-10.878l-4.629,0.004l-0.009-12.345l12.347-0.009L1309.643,104.14z"/>
		</g>
		<g>
			<g>
				<path fill="#0060A3" d="M1265.936,271.346c0.197,58.658,0.395,117.316,0.592,175.974c0.032,9.417,0.063,18.834,0.096,28.252
					c0.032,9.534,7.932,17.49,17.49,17.49c58.598,0,117.195,0,175.793,0c13.364,0,26.729,0,40.093,0
					c-5.83-5.83-11.66-11.66-17.49-17.49c0,50.13,0,100.261,0,150.391c0,61.171,0,122.342,0,183.514c0,1.871,0,3.743,0,5.615
					c5.83-5.83,11.66-11.66,17.49-17.49c-47.716,0-95.432,0-143.147,0c-68.004,0-136.009,0-204.013,0c-7.742,0-15.484,0-23.227,0
					c-9.534,0-17.49,7.956-17.49,17.49c0,49.371,0,98.743,0,148.114c0,63.356,0,126.713,0,190.069c0,3.189,0,6.379,0,9.568
					c0,9.534,7.956,17.49,17.49,17.49c51.1,0,102.199,0,153.299,0c-5.83-5.83-11.66-11.66-17.49-17.49
					c0.196,54.457,0.393,108.913,0.588,163.37c0.147,40.798,0.294,81.596,0.441,122.394c0.081,22.554,35.062,22.562,34.98,0
					c-0.196-54.457-0.393-108.913-0.588-163.37c-0.147-40.798-0.294-81.596-0.441-122.394c-0.034-9.534-7.93-17.49-17.49-17.49
					c-51.1,0-102.199,0-153.299,0c5.83,5.83,11.66,11.66,17.49,17.49c0-49.371,0-98.743,0-148.114c0-63.356,0-126.713,0-190.069
					c0-3.189,0-6.379,0-9.568c-5.83,5.83-11.66,11.66-17.49,17.49c47.716,0,95.432,0,143.147,0c68.004,0,136.009,0,204.013,0
					c7.742,0,15.484,0,23.227,0c9.534,0,17.49-7.956,17.49-17.49c0-50.13,0-100.261,0-150.391c0-61.171,0-122.342,0-183.514
					c0-1.872,0-3.744,0-5.616c0-9.534-7.956-17.49-17.49-17.49c-58.598,0-117.195,0-175.793,0c-13.364,0-26.729,0-40.093,0
					c5.83,5.83,11.66,11.66,17.49,17.49c-0.197-58.658-0.395-117.316-0.592-175.974c-0.032-9.417-0.063-18.834-0.096-28.252
					C1300.841,248.792,1265.86,248.785,1265.936,271.346L1265.936,271.346z"/>
			</g>
		</g>
	</g>
</g>
</svg>
